<svg xmlns="http://www.w3.org/2000/svg" xmlns:xlink="http://www.w3.org/1999/xlink" width="90" height="14" viewBox="0 0 90 14">
  <defs>
    <style>
      .cls-1, .cls-2, .cls-3 {
        fill-rule: evenodd;
      }

      .cls-1 {
        filter: url(#filter);
      }

      .cls-2 {
        filter: url(#filter-2);
      }

      .cls-3 {
        fill: #cfcfcf;
        fill-opacity: 0;
        stroke: #e4e4e4;
        stroke-linejoin: round;
        stroke-width: 1px;
        filter: url(#filter-3);
      }
    </style>
    <filter id="filter" x="0.094" y="7" width="30" height="1" filterUnits="userSpaceOnUse">
      <feFlood result="flood" flood-color="#e4e4e4"/>
      <feComposite result="composite" operator="in" in2="SourceGraphic"/>
      <feBlend result="blend" in2="SourceGraphic"/>
    </filter>
    <filter id="filter-2" x="60.094" y="7" width="30" height="1" filterUnits="userSpaceOnUse">
      <feFlood result="flood" flood-color="#e4e4e4"/>
      <feComposite result="composite" operator="in" in2="SourceGraphic"/>
      <feBlend result="blend" in2="SourceGraphic"/>
    </filter>
    <filter id="filter-3" x="38.094" y="0.063" width="14.031" height="13.938" filterUnits="userSpaceOnUse">
      <feFlood result="flood" flood-color="#fff"/>
      <feComposite result="composite" operator="in" in2="SourceGraphic"/>
      <feBlend result="blend" in2="SourceGraphic"/>
    </filter>
  </defs>
  <path id="Line" class="cls-1" d="M0.1,7.007h30V8H0.1V7.007Z"/>
  <path id="Line-2" data-name="Line" class="cls-2" d="M60.094,7.007h30V8h-30V7.007Z"/>
  <g style="fill: #cfcfcf; filter: url(#filter-3)">
    <path id="shape" class="cls-3" d="M45.458,0.192l6.486,6.451a0.5,0.5,0,0,1,0,.717L45.45,13.819a0.511,0.511,0,0,1-.721,0L38.244,7.368a0.505,0.505,0,0,1,0-.717l6.493-6.459A0.512,0.512,0,0,1,45.458.192Z" style="stroke: inherit; filter: none; fill: inherit"/>
  </g>
  <use xlink:href="#shape" style="stroke: #e4e4e4; filter: none; fill: none"/>
</svg>
